<mxfile host="app.diagrams.net" modified="2023-05-25T00:23:06.913Z" agent="Mozilla/5.0 (Windows NT 10.0; Win64; x64) AppleWebKit/537.36 (KHTML, like Gecko) Chrome/113.0.0.0 Safari/537.36 Edg/113.0.1774.50" etag="cs_rpR4pADgdwucUqFyy" version="21.3.2" type="device">
  <diagram id="R2lEEEUBdFMjLlhIrx00" name="Page-1">
    <mxGraphModel dx="474" dy="1863" grid="1" gridSize="10" guides="1" tooltips="1" connect="1" arrows="1" fold="1" page="1" pageScale="1" pageWidth="850" pageHeight="1100" math="0" shadow="0" extFonts="Permanent Marker^https://fonts.googleapis.com/css?family=Permanent+Marker">
      <root>
        <mxCell id="0" />
        <mxCell id="1" parent="0" />
        <mxCell id="iJYA7BdWhgSG7kymxHHN-1" value="Grupo" style="rounded=0;whiteSpace=wrap;html=1;" vertex="1" parent="1">
          <mxGeometry x="260" y="660" width="120" height="60" as="geometry" />
        </mxCell>
        <mxCell id="iJYA7BdWhgSG7kymxHHN-2" value="Mensaje" style="rounded=0;whiteSpace=wrap;html=1;" vertex="1" parent="1">
          <mxGeometry x="470" y="320" width="120" height="60" as="geometry" />
        </mxCell>
        <mxCell id="iJYA7BdWhgSG7kymxHHN-3" value="Amistad" style="rounded=0;whiteSpace=wrap;html=1;" vertex="1" parent="1">
          <mxGeometry x="170" y="-20" width="120" height="60" as="geometry" />
        </mxCell>
        <mxCell id="iJYA7BdWhgSG7kymxHHN-4" value="Usuario" style="rounded=0;whiteSpace=wrap;html=1;" vertex="1" parent="1">
          <mxGeometry x="10" y="320" width="120" height="60" as="geometry" />
        </mxCell>
        <mxCell id="iJYA7BdWhgSG7kymxHHN-6" value="foto de&lt;br&gt;&amp;nbsp;perfil" style="ellipse;whiteSpace=wrap;html=1;" vertex="1" parent="1">
          <mxGeometry y="190" width="70" height="40" as="geometry" />
        </mxCell>
        <mxCell id="iJYA7BdWhgSG7kymxHHN-7" value="ubicación" style="ellipse;whiteSpace=wrap;html=1;" vertex="1" parent="1">
          <mxGeometry x="160" y="200" width="70" height="40" as="geometry" />
        </mxCell>
        <mxCell id="iJYA7BdWhgSG7kymxHHN-8" value="correo electrónico" style="ellipse;whiteSpace=wrap;html=1;" vertex="1" parent="1">
          <mxGeometry x="200" y="390" width="70" height="40" as="geometry" />
        </mxCell>
        <mxCell id="iJYA7BdWhgSG7kymxHHN-9" value="género" style="ellipse;whiteSpace=wrap;html=1;" vertex="1" parent="1">
          <mxGeometry x="190" y="450" width="70" height="35" as="geometry" />
        </mxCell>
        <mxCell id="iJYA7BdWhgSG7kymxHHN-10" value="fecha de nacimiento" style="ellipse;whiteSpace=wrap;html=1;" vertex="1" parent="1">
          <mxGeometry x="35" y="105" width="70" height="40" as="geometry" />
        </mxCell>
        <mxCell id="iJYA7BdWhgSG7kymxHHN-11" value="apellido" style="ellipse;whiteSpace=wrap;html=1;" vertex="1" parent="1">
          <mxGeometry x="70" y="470" width="70" height="40" as="geometry" />
        </mxCell>
        <mxCell id="iJYA7BdWhgSG7kymxHHN-12" value="nombre" style="ellipse;whiteSpace=wrap;html=1;" vertex="1" parent="1">
          <mxGeometry y="430" width="70" height="40" as="geometry" />
        </mxCell>
        <mxCell id="iJYA7BdWhgSG7kymxHHN-13" value="&lt;u&gt;ID mensaje&lt;/u&gt;" style="ellipse;whiteSpace=wrap;html=1;" vertex="1" parent="1">
          <mxGeometry x="520" y="450" width="70" height="40" as="geometry" />
        </mxCell>
        <mxCell id="iJYA7BdWhgSG7kymxHHN-14" value="Fecha&lt;br&gt;Envio" style="ellipse;whiteSpace=wrap;html=1;" vertex="1" parent="1">
          <mxGeometry x="440" y="240" width="70" height="40" as="geometry" />
        </mxCell>
        <mxCell id="iJYA7BdWhgSG7kymxHHN-15" value="Contenido&lt;br&gt;Msj" style="ellipse;whiteSpace=wrap;html=1;" vertex="1" parent="1">
          <mxGeometry x="610" y="400" width="70" height="40" as="geometry" />
        </mxCell>
        <mxCell id="iJYA7BdWhgSG7kymxHHN-19" value="&lt;u&gt;ID&lt;br&gt;Grupo&lt;/u&gt;" style="ellipse;whiteSpace=wrap;html=1;" vertex="1" parent="1">
          <mxGeometry x="180" y="740" width="70" height="40" as="geometry" />
        </mxCell>
        <mxCell id="iJYA7BdWhgSG7kymxHHN-20" value="Descripcion Grupo" style="ellipse;whiteSpace=wrap;html=1;" vertex="1" parent="1">
          <mxGeometry x="440" y="710" width="70" height="40" as="geometry" />
        </mxCell>
        <mxCell id="iJYA7BdWhgSG7kymxHHN-21" value="Nombre&lt;br&gt;Grupo" style="ellipse;whiteSpace=wrap;html=1;" vertex="1" parent="1">
          <mxGeometry x="355" y="760" width="70" height="40" as="geometry" />
        </mxCell>
        <mxCell id="iJYA7BdWhgSG7kymxHHN-22" value="&lt;u&gt;ID Amistad&lt;/u&gt;" style="ellipse;whiteSpace=wrap;html=1;" vertex="1" parent="1">
          <mxGeometry x="290" y="-110" width="70" height="40" as="geometry" />
        </mxCell>
        <mxCell id="iJYA7BdWhgSG7kymxHHN-24" value="fecha de amistad" style="ellipse;whiteSpace=wrap;html=1;" vertex="1" parent="1">
          <mxGeometry x="380" y="80" width="70" height="40" as="geometry" />
        </mxCell>
        <mxCell id="iJYA7BdWhgSG7kymxHHN-25" value="ID del usuario 2" style="ellipse;whiteSpace=wrap;html=1;" vertex="1" parent="1">
          <mxGeometry x="420" y="5" width="70" height="45" as="geometry" />
        </mxCell>
        <mxCell id="iJYA7BdWhgSG7kymxHHN-26" value="ID usuario" style="ellipse;whiteSpace=wrap;html=1;" vertex="1" parent="1">
          <mxGeometry x="400" y="-80" width="70" height="40" as="geometry" />
        </mxCell>
        <mxCell id="iJYA7BdWhgSG7kymxHHN-27" value="" style="endArrow=none;html=1;rounded=0;entryX=0.3;entryY=0.95;entryDx=0;entryDy=0;entryPerimeter=0;exitX=0.442;exitY=-0.067;exitDx=0;exitDy=0;exitPerimeter=0;" edge="1" parent="1" source="iJYA7BdWhgSG7kymxHHN-3" target="iJYA7BdWhgSG7kymxHHN-22">
          <mxGeometry width="50" height="50" relative="1" as="geometry">
            <mxPoint x="230" y="-20" as="sourcePoint" />
            <mxPoint x="280" y="-70" as="targetPoint" />
          </mxGeometry>
        </mxCell>
        <mxCell id="iJYA7BdWhgSG7kymxHHN-28" value="" style="endArrow=none;html=1;rounded=0;entryX=0;entryY=0.5;entryDx=0;entryDy=0;exitX=1;exitY=0;exitDx=0;exitDy=0;" edge="1" parent="1" source="iJYA7BdWhgSG7kymxHHN-3" target="iJYA7BdWhgSG7kymxHHN-26">
          <mxGeometry width="50" height="50" relative="1" as="geometry">
            <mxPoint x="371" y="18" as="sourcePoint" />
            <mxPoint x="399" y="-40" as="targetPoint" />
          </mxGeometry>
        </mxCell>
        <mxCell id="iJYA7BdWhgSG7kymxHHN-30" value="" style="endArrow=none;html=1;rounded=0;entryX=0;entryY=0.5;entryDx=0;entryDy=0;exitX=1;exitY=0.5;exitDx=0;exitDy=0;" edge="1" parent="1" source="iJYA7BdWhgSG7kymxHHN-3" target="iJYA7BdWhgSG7kymxHHN-25">
          <mxGeometry width="50" height="50" relative="1" as="geometry">
            <mxPoint x="350" y="70" as="sourcePoint" />
            <mxPoint x="400" y="20" as="targetPoint" />
          </mxGeometry>
        </mxCell>
        <mxCell id="iJYA7BdWhgSG7kymxHHN-31" value="" style="endArrow=none;html=1;rounded=0;entryX=0;entryY=0.275;entryDx=0;entryDy=0;exitX=0.85;exitY=1.033;exitDx=0;exitDy=0;entryPerimeter=0;exitPerimeter=0;" edge="1" parent="1" source="iJYA7BdWhgSG7kymxHHN-3" target="iJYA7BdWhgSG7kymxHHN-24">
          <mxGeometry width="50" height="50" relative="1" as="geometry">
            <mxPoint x="310" y="90" as="sourcePoint" />
            <mxPoint x="380" y="98" as="targetPoint" />
          </mxGeometry>
        </mxCell>
        <mxCell id="iJYA7BdWhgSG7kymxHHN-32" value="" style="endArrow=none;html=1;rounded=0;entryX=0.5;entryY=1;entryDx=0;entryDy=0;exitX=0.75;exitY=0;exitDx=0;exitDy=0;" edge="1" parent="1" source="iJYA7BdWhgSG7kymxHHN-4" target="iJYA7BdWhgSG7kymxHHN-10">
          <mxGeometry width="50" height="50" relative="1" as="geometry">
            <mxPoint x="140" y="420" as="sourcePoint" />
            <mxPoint x="190" y="370" as="targetPoint" />
          </mxGeometry>
        </mxCell>
        <mxCell id="iJYA7BdWhgSG7kymxHHN-33" value="" style="endArrow=none;html=1;rounded=0;entryX=0;entryY=1;entryDx=0;entryDy=0;exitX=0.904;exitY=0.017;exitDx=0;exitDy=0;exitPerimeter=0;" edge="1" parent="1" source="iJYA7BdWhgSG7kymxHHN-4" target="iJYA7BdWhgSG7kymxHHN-7">
          <mxGeometry width="50" height="50" relative="1" as="geometry">
            <mxPoint x="140" y="320" as="sourcePoint" />
            <mxPoint x="190" y="370" as="targetPoint" />
          </mxGeometry>
        </mxCell>
        <mxCell id="iJYA7BdWhgSG7kymxHHN-34" value="" style="endArrow=none;html=1;rounded=0;exitX=0.5;exitY=0;exitDx=0;exitDy=0;entryX=0.75;entryY=1;entryDx=0;entryDy=0;entryPerimeter=0;" edge="1" parent="1" source="iJYA7BdWhgSG7kymxHHN-9" target="iJYA7BdWhgSG7kymxHHN-4">
          <mxGeometry width="50" height="50" relative="1" as="geometry">
            <mxPoint x="140" y="420" as="sourcePoint" />
            <mxPoint x="190" y="370" as="targetPoint" />
          </mxGeometry>
        </mxCell>
        <mxCell id="iJYA7BdWhgSG7kymxHHN-35" value="" style="endArrow=none;html=1;rounded=0;entryX=0.329;entryY=1.017;entryDx=0;entryDy=0;entryPerimeter=0;exitX=0.336;exitY=0.1;exitDx=0;exitDy=0;exitPerimeter=0;" edge="1" parent="1" source="iJYA7BdWhgSG7kymxHHN-12" target="iJYA7BdWhgSG7kymxHHN-4">
          <mxGeometry width="50" height="50" relative="1" as="geometry">
            <mxPoint x="140" y="420" as="sourcePoint" />
            <mxPoint x="190" y="370" as="targetPoint" />
          </mxGeometry>
        </mxCell>
        <mxCell id="iJYA7BdWhgSG7kymxHHN-36" value="" style="endArrow=none;html=1;rounded=0;entryX=0.921;entryY=1.017;entryDx=0;entryDy=0;exitX=0.393;exitY=0;exitDx=0;exitDy=0;exitPerimeter=0;entryPerimeter=0;" edge="1" parent="1" source="iJYA7BdWhgSG7kymxHHN-8" target="iJYA7BdWhgSG7kymxHHN-4">
          <mxGeometry width="50" height="50" relative="1" as="geometry">
            <mxPoint x="140" y="420" as="sourcePoint" />
            <mxPoint x="190" y="370" as="targetPoint" />
          </mxGeometry>
        </mxCell>
        <mxCell id="iJYA7BdWhgSG7kymxHHN-37" value="" style="endArrow=none;html=1;rounded=0;exitX=0.5;exitY=0;exitDx=0;exitDy=0;entryX=0.579;entryY=1.033;entryDx=0;entryDy=0;entryPerimeter=0;" edge="1" parent="1" source="iJYA7BdWhgSG7kymxHHN-11" target="iJYA7BdWhgSG7kymxHHN-4">
          <mxGeometry width="50" height="50" relative="1" as="geometry">
            <mxPoint x="140" y="420" as="sourcePoint" />
            <mxPoint x="190" y="370" as="targetPoint" />
          </mxGeometry>
        </mxCell>
        <mxCell id="iJYA7BdWhgSG7kymxHHN-38" value="" style="endArrow=none;html=1;rounded=0;exitX=0.407;exitY=0.95;exitDx=0;exitDy=0;exitPerimeter=0;entryX=0.412;entryY=0.017;entryDx=0;entryDy=0;entryPerimeter=0;" edge="1" parent="1" source="iJYA7BdWhgSG7kymxHHN-6" target="iJYA7BdWhgSG7kymxHHN-4">
          <mxGeometry width="50" height="50" relative="1" as="geometry">
            <mxPoint x="140" y="420" as="sourcePoint" />
            <mxPoint x="190" y="370" as="targetPoint" />
          </mxGeometry>
        </mxCell>
        <mxCell id="iJYA7BdWhgSG7kymxHHN-39" value="" style="endArrow=none;html=1;rounded=0;entryX=0;entryY=0.5;entryDx=0;entryDy=0;exitX=1;exitY=0.5;exitDx=0;exitDy=0;strokeWidth=2;" edge="1" parent="1" source="iJYA7BdWhgSG7kymxHHN-4" target="iJYA7BdWhgSG7kymxHHN-2">
          <mxGeometry width="50" height="50" relative="1" as="geometry">
            <mxPoint x="270" y="420" as="sourcePoint" />
            <mxPoint x="320" y="370" as="targetPoint" />
          </mxGeometry>
        </mxCell>
        <mxCell id="iJYA7BdWhgSG7kymxHHN-40" value="&lt;u&gt;ID usuario&lt;/u&gt;" style="ellipse;whiteSpace=wrap;html=1;" vertex="1" parent="1">
          <mxGeometry x="185" y="260" width="70" height="35" as="geometry" />
        </mxCell>
        <mxCell id="iJYA7BdWhgSG7kymxHHN-41" value="" style="endArrow=none;html=1;rounded=0;entryX=0;entryY=0.5;entryDx=0;entryDy=0;exitX=1;exitY=0;exitDx=0;exitDy=0;" edge="1" parent="1" source="iJYA7BdWhgSG7kymxHHN-4" target="iJYA7BdWhgSG7kymxHHN-40">
          <mxGeometry width="50" height="50" relative="1" as="geometry">
            <mxPoint x="220" y="420" as="sourcePoint" />
            <mxPoint x="270" y="370" as="targetPoint" />
          </mxGeometry>
        </mxCell>
        <mxCell id="iJYA7BdWhgSG7kymxHHN-42" value="Publica" style="rhombus;whiteSpace=wrap;html=1;" vertex="1" parent="1">
          <mxGeometry x="260" y="320" width="60" height="60" as="geometry" />
        </mxCell>
        <mxCell id="iJYA7BdWhgSG7kymxHHN-43" value="" style="endArrow=none;html=1;rounded=0;exitX=0.5;exitY=0;exitDx=0;exitDy=0;entryX=0.677;entryY=1;entryDx=0;entryDy=0;entryPerimeter=0;strokeWidth=2;" edge="1" parent="1" source="iJYA7BdWhgSG7kymxHHN-1" target="iJYA7BdWhgSG7kymxHHN-4">
          <mxGeometry width="50" height="50" relative="1" as="geometry">
            <mxPoint x="300" y="420" as="sourcePoint" />
            <mxPoint x="350" y="370" as="targetPoint" />
          </mxGeometry>
        </mxCell>
        <mxCell id="iJYA7BdWhgSG7kymxHHN-44" value="Unirse" style="rhombus;whiteSpace=wrap;html=1;" vertex="1" parent="1">
          <mxGeometry x="180" y="500" width="80" height="80" as="geometry" />
        </mxCell>
        <mxCell id="iJYA7BdWhgSG7kymxHHN-45" value="Miembros" style="ellipse;whiteSpace=wrap;html=1;dashed=1;" vertex="1" parent="1">
          <mxGeometry x="380" y="600" width="70" height="40" as="geometry" />
        </mxCell>
        <mxCell id="iJYA7BdWhgSG7kymxHHN-46" value="" style="endArrow=none;html=1;rounded=0;entryX=0.014;entryY=0.825;entryDx=0;entryDy=0;entryPerimeter=0;exitX=0.75;exitY=0;exitDx=0;exitDy=0;" edge="1" parent="1" source="iJYA7BdWhgSG7kymxHHN-1" target="iJYA7BdWhgSG7kymxHHN-45">
          <mxGeometry width="50" height="50" relative="1" as="geometry">
            <mxPoint x="400" y="700" as="sourcePoint" />
            <mxPoint x="450" y="650" as="targetPoint" />
          </mxGeometry>
        </mxCell>
        <mxCell id="iJYA7BdWhgSG7kymxHHN-47" value="" style="endArrow=none;html=1;rounded=0;entryX=0.029;entryY=0.275;entryDx=0;entryDy=0;entryPerimeter=0;exitX=1;exitY=0.5;exitDx=0;exitDy=0;" edge="1" parent="1" source="iJYA7BdWhgSG7kymxHHN-1" target="iJYA7BdWhgSG7kymxHHN-20">
          <mxGeometry width="50" height="50" relative="1" as="geometry">
            <mxPoint x="380" y="704" as="sourcePoint" />
            <mxPoint x="449" y="690" as="targetPoint" />
          </mxGeometry>
        </mxCell>
        <mxCell id="iJYA7BdWhgSG7kymxHHN-48" value="" style="endArrow=none;html=1;rounded=0;entryX=0.414;entryY=-0.025;entryDx=0;entryDy=0;entryPerimeter=0;exitX=0.75;exitY=1;exitDx=0;exitDy=0;" edge="1" parent="1" source="iJYA7BdWhgSG7kymxHHN-1" target="iJYA7BdWhgSG7kymxHHN-21">
          <mxGeometry width="50" height="50" relative="1" as="geometry">
            <mxPoint x="390" y="700" as="sourcePoint" />
            <mxPoint x="452" y="731" as="targetPoint" />
          </mxGeometry>
        </mxCell>
        <mxCell id="iJYA7BdWhgSG7kymxHHN-49" value="" style="endArrow=none;html=1;rounded=0;entryX=1;entryY=0;entryDx=0;entryDy=0;exitX=0.183;exitY=1.017;exitDx=0;exitDy=0;exitPerimeter=0;" edge="1" parent="1" source="iJYA7BdWhgSG7kymxHHN-1" target="iJYA7BdWhgSG7kymxHHN-19">
          <mxGeometry width="50" height="50" relative="1" as="geometry">
            <mxPoint x="270" y="740" as="sourcePoint" />
            <mxPoint x="304" y="779" as="targetPoint" />
          </mxGeometry>
        </mxCell>
        <mxCell id="iJYA7BdWhgSG7kymxHHN-50" value="" style="endArrow=none;html=1;rounded=0;entryX=1;entryY=1;entryDx=0;entryDy=0;exitX=0;exitY=0;exitDx=0;exitDy=0;" edge="1" parent="1" source="iJYA7BdWhgSG7kymxHHN-15" target="iJYA7BdWhgSG7kymxHHN-2">
          <mxGeometry width="50" height="50" relative="1" as="geometry">
            <mxPoint x="560" y="450" as="sourcePoint" />
            <mxPoint x="610" y="400" as="targetPoint" />
          </mxGeometry>
        </mxCell>
        <mxCell id="iJYA7BdWhgSG7kymxHHN-51" value="" style="endArrow=none;html=1;rounded=0;entryX=0.417;entryY=1;entryDx=0;entryDy=0;exitX=0.5;exitY=0;exitDx=0;exitDy=0;entryPerimeter=0;" edge="1" parent="1" source="iJYA7BdWhgSG7kymxHHN-13" target="iJYA7BdWhgSG7kymxHHN-2">
          <mxGeometry width="50" height="50" relative="1" as="geometry">
            <mxPoint x="560" y="423" as="sourcePoint" />
            <mxPoint x="530" y="397" as="targetPoint" />
          </mxGeometry>
        </mxCell>
        <mxCell id="iJYA7BdWhgSG7kymxHHN-52" value="" style="endArrow=none;html=1;rounded=0;entryX=1;entryY=1;entryDx=0;entryDy=0;exitX=0.5;exitY=0;exitDx=0;exitDy=0;" edge="1" parent="1" source="iJYA7BdWhgSG7kymxHHN-2" target="iJYA7BdWhgSG7kymxHHN-14">
          <mxGeometry width="50" height="50" relative="1" as="geometry">
            <mxPoint x="572.5" y="290" as="sourcePoint" />
            <mxPoint x="537.5" y="220" as="targetPoint" />
          </mxGeometry>
        </mxCell>
        <mxCell id="iJYA7BdWhgSG7kymxHHN-53" value="" style="endArrow=none;html=1;rounded=0;entryX=0.25;entryY=1;entryDx=0;entryDy=0;exitX=0.64;exitY=0.16;exitDx=0;exitDy=0;strokeWidth=2;exitPerimeter=0;" edge="1" parent="1" source="iJYA7BdWhgSG7kymxHHN-54" target="iJYA7BdWhgSG7kymxHHN-3">
          <mxGeometry width="50" height="50" relative="1" as="geometry">
            <mxPoint x="260" y="330" as="sourcePoint" />
            <mxPoint x="310" y="280" as="targetPoint" />
          </mxGeometry>
        </mxCell>
        <mxCell id="iJYA7BdWhgSG7kymxHHN-55" value="" style="endArrow=none;html=1;rounded=0;entryX=0.25;entryY=1;entryDx=0;entryDy=0;exitX=0.829;exitY=0;exitDx=0;exitDy=0;exitPerimeter=0;strokeWidth=2;" edge="1" parent="1" source="iJYA7BdWhgSG7kymxHHN-4" target="iJYA7BdWhgSG7kymxHHN-54">
          <mxGeometry width="50" height="50" relative="1" as="geometry">
            <mxPoint x="109" y="320" as="sourcePoint" />
            <mxPoint x="200" y="40" as="targetPoint" />
          </mxGeometry>
        </mxCell>
        <mxCell id="iJYA7BdWhgSG7kymxHHN-54" value="Tener" style="rhombus;whiteSpace=wrap;html=1;" vertex="1" parent="1">
          <mxGeometry x="130" y="120" width="60" height="60" as="geometry" />
        </mxCell>
        <mxCell id="iJYA7BdWhgSG7kymxHHN-56" value="&lt;font style=&quot;font-size: 18px;&quot;&gt;(N:N)&lt;/font&gt;" style="text;html=1;strokeColor=none;fillColor=none;align=center;verticalAlign=middle;whiteSpace=wrap;rounded=0;" vertex="1" parent="1">
          <mxGeometry x="240" y="510" width="60" height="30" as="geometry" />
        </mxCell>
        <mxCell id="iJYA7BdWhgSG7kymxHHN-57" value="&lt;font style=&quot;font-size: 14px;&quot;&gt;(1:N)&lt;/font&gt;" style="text;html=1;strokeColor=none;fillColor=none;align=center;verticalAlign=middle;whiteSpace=wrap;rounded=0;" vertex="1" parent="1">
          <mxGeometry x="80" y="230" width="60" height="30" as="geometry" />
        </mxCell>
        <mxCell id="iJYA7BdWhgSG7kymxHHN-58" value="(1:N)" style="text;html=1;strokeColor=none;fillColor=none;align=center;verticalAlign=middle;whiteSpace=wrap;rounded=0;" vertex="1" parent="1">
          <mxGeometry x="140" y="40" width="60" height="30" as="geometry" />
        </mxCell>
        <mxCell id="iJYA7BdWhgSG7kymxHHN-59" value="&lt;font style=&quot;font-size: 14px;&quot;&gt;(1:N)&lt;/font&gt;" style="text;html=1;strokeColor=none;fillColor=none;align=center;verticalAlign=middle;whiteSpace=wrap;rounded=0;" vertex="1" parent="1">
          <mxGeometry x="110" y="405" width="60" height="30" as="geometry" />
        </mxCell>
        <mxCell id="iJYA7BdWhgSG7kymxHHN-60" value="&lt;font style=&quot;font-size: 14px;&quot;&gt;(1:N)&lt;/font&gt;" style="text;html=1;strokeColor=none;fillColor=none;align=center;verticalAlign=middle;whiteSpace=wrap;rounded=0;" vertex="1" parent="1">
          <mxGeometry x="290" y="620" width="60" height="30" as="geometry" />
        </mxCell>
        <mxCell id="iJYA7BdWhgSG7kymxHHN-61" value="&lt;font style=&quot;font-size: 14px;&quot;&gt;(1:1)&lt;/font&gt;" style="text;html=1;strokeColor=none;fillColor=none;align=center;verticalAlign=middle;whiteSpace=wrap;rounded=0;" vertex="1" parent="1">
          <mxGeometry x="405" y="310" width="60" height="30" as="geometry" />
        </mxCell>
        <mxCell id="iJYA7BdWhgSG7kymxHHN-62" value="&lt;font style=&quot;font-size: 14px;&quot;&gt;(1:N)&lt;/font&gt;" style="text;html=1;strokeColor=none;fillColor=none;align=center;verticalAlign=middle;whiteSpace=wrap;rounded=0;" vertex="1" parent="1">
          <mxGeometry x="125" y="320" width="60" height="30" as="geometry" />
        </mxCell>
        <mxCell id="iJYA7BdWhgSG7kymxHHN-63" value="&lt;font style=&quot;font-size: 18px;&quot;&gt;(N:1)&lt;/font&gt;" style="text;html=1;strokeColor=none;fillColor=none;align=center;verticalAlign=middle;whiteSpace=wrap;rounded=0;" vertex="1" parent="1">
          <mxGeometry x="260" y="295" width="60" height="30" as="geometry" />
        </mxCell>
      </root>
    </mxGraphModel>
  </diagram>
</mxfile>
